<?xml version="1.0" encoding="utf-8"?>
<!-- Generator: Adobe Illustrator 21.0.0, SVG Export Plug-In . SVG Version: 6.00 Build 0)  -->
<svg version="1.1" id="Layer_1" xmlns="http://www.w3.org/2000/svg" xmlns:xlink="http://www.w3.org/1999/xlink" x="0px" y="0px"
	 viewBox="0 0 221.3 22.1" style="enable-background:new 0 0 221.3 22.1;" xml:space="preserve">
<style type="text/css">
	.st0{fill:#0067B9;}
	.st1{fill:#00C6D5;}
</style>
<g>
	<path class="st0" d="M33.7,14.6h-8.6l4.3-7.4L33.7,14.6z M28.7,0.2L16,22h4.8l2-3.4h13.3l2,3.4h4.8L30.2,0.2H28.7z"/>
	<polygon class="st0" points="79.8,22 84.3,22 84.3,0.1 79.8,0.1 79.8,10.7 65.4,10.7 65.4,0.1 61,0.1 61,22 65.4,22 65.4,14.7 
		79.8,14.7 	"/>
	<path class="st0" d="M4.4,4.1h3.5c5.1,0,6.9,1.3,6.9,4.9c0,3.7-4.8,4.2-6.9,4.2H4.4V4.1z M7.9,17.1c6.9,0,11.3-3.2,11.3-8.3
		C19.2,5.5,17.7,0,7.9,0H0v21.9h4.4V17h3.5V17.1z"/>
	<polygon class="st1" points="162.6,4.1 162.6,0.1 141.7,0.1 141.7,4.1 150,4.1 150,22 154.4,22 154.4,4.1 	"/>
	<polygon class="st0" points="58.5,4.1 58.5,0.1 37.7,0.1 37.6,4.1 45.9,4.1 45.9,22 50.3,22 50.3,4.1 	"/>
	<path class="st1" d="M137.7,14.6h-8.6l4.3-7.4L137.7,14.6z M132.6,0.2L120,22h4.8l2-3.4H140l2,3.4h4.8L134.1,0.2H132.6z"/>
	<polygon class="st1" points="115.1,22 124.9,0.1 119.9,0.1 114.1,13.5 106.8,0.1 105.2,0.1 97.9,13.5 92.1,0.1 86.9,0.1 96.8,22 
		98.4,22 106,7.6 113.5,22 	"/>
	<polygon class="st1" points="184.1,22 184.1,18 169.7,18 169.7,14.5 182.1,14.5 182.1,10.6 169.7,10.6 169.7,4.1 183.5,4.1 
		183.5,0.1 165.1,0.1 165.1,22 	"/>
	<path class="st1" d="M191.6,13.1v-9h3.5c5.1,0,6.9,1.3,6.9,4.9c0,3.7-4.8,4.2-6.9,4.2h-3.5V13.1z M207.9,22l-6.5-6.1
		c3.1-1.4,5-3.8,5-7.1S204.9,0,195.1,0h-7.9v21.9h4.4V17h3.5c0.4,0,0.7,0,1.1,0l5.2,4.9h6.5V22z"/>
	<path class="st1" d="M214.8,17.7h-1.6l0.1,4.4h-1.1l-0.1-4.4h-1.6v-1.1l4.2-0.1L214.8,17.7z M221.3,22h-1.1l-0.1-4.4l0,0l-1.4,4.5
		h-0.6l-1.5-4.4l0,0l0.1,4.4h-1.1l-0.1-5.5h1.8l1.2,3.2l0,0l1-3.3h1.8L221.3,22z"/>
</g>
</svg>
