<?xml version="1.0" standalone="no"?>
<!DOCTYPE svg PUBLIC "-//W3C//DTD SVG 20010904//EN"
 "http://www.w3.org/TR/2001/REC-SVG-20010904/DTD/svg10.dtd">
<svg version="1.0" xmlns="http://www.w3.org/2000/svg"
 width="941.000000pt" height="946.000000pt" viewBox="0 0 941.000000 946.000000"
 preserveAspectRatio="xMidYMid meet">
<metadata>
Created by potrace 1.15, written by Peter Selinger 2001-2017
</metadata>
<g transform="translate(0.000000,946.000000) scale(0.100000,-0.100000)"
fill="#000000" stroke="none">
<path d="M4415 9419 c-904 -57 -1794 -385 -2515 -928 -340 -256 -685 -601
-941 -941 -663 -880 -997 -1991 -929 -3090 40 -652 190 -1217 475 -1795 247
-501 532 -895 936 -1290 224 -220 403 -365 659 -537 942 -631 2052 -897 3185
-762 1250 148 2413 819 3175 1829 359 477 616 994 774 1560 309 1103 206 2279
-289 3303 -250 515 -547 927 -961 1332 -945 924 -2240 1403 -3569 1319z m591
-50 c1334 -88 2527 -715 3361 -1766 308 -388 567 -861 736 -1348 317 -910 340
-1890 67 -2834 -122 -422 -330 -869 -583 -1251 -677 -1022 -1746 -1743 -2942
-1985 -1005 -203 -2029 -76 -2943 365 -1147 554 -2014 1547 -2405 2755 -428
1323 -241 2770 511 3940 357 555 842 1040 1397 1397 830 534 1826 792 2801
727z"/>
<path d="M3199 8300 c-287 -27 -450 -140 -504 -347 -31 -120 -8 -282 57 -404
35 -67 122 -163 183 -201 64 -41 89 -73 95 -126 l5 -47 38 64 c90 152 274 360
424 482 l73 58 -48 7 c-57 8 -82 28 -82 65 0 15 16 78 36 141 59 187 55 256
-16 293 -37 19 -150 26 -261 15z"/>
<path d="M6058 8301 c-117 -23 -133 -91 -68 -296 22 -69 40 -139 40 -154 0
-33 -27 -61 -61 -62 -13 -1 -35 -4 -48 -8 -22 -6 -19 -11 50 -66 168 -136 332
-329 452 -532 l62 -106 5 118 5 118 45 36 c113 91 177 178 216 292 34 99 41
213 20 303 -52 218 -213 329 -521 356 -122 11 -143 11 -197 1z"/>
<path d="M4066 7069 c-156 -23 -355 -104 -472 -192 -144 -109 -259 -261 -309
-406 -82 -242 -35 -475 129 -636 115 -113 252 -170 437 -182 325 -20 567 181
666 555 23 86 26 118 27 272 1 203 -12 274 -75 406 -44 92 -115 166 -177 184
-43 12 -142 11 -226 -1z m133 -670 c68 -38 101 -114 81 -188 -35 -130 -186
-174 -284 -83 -79 75 -71 199 17 263 51 37 129 40 186 8z"/>
<path d="M5152 7054 c-65 -32 -106 -79 -148 -168 -119 -253 -106 -606 33 -886
38 -77 63 -110 128 -175 128 -128 231 -169 425 -170 104 0 138 4 200 23 294
92 453 314 437 607 -21 374 -358 704 -796 779 -141 24 -216 21 -279 -10z m299
-657 c55 -37 79 -81 79 -146 0 -44 -6 -65 -25 -94 -51 -74 -152 -98 -230 -54
-111 63 -112 230 -1 298 45 28 133 26 177 -4z"/>
<path d="M2747 5338 c-161 -202 -264 -474 -308 -818 -18 -135 -15 -485 5 -655
14 -116 69 -419 92 -501 5 -21 2 -22 -108 -26 -126 -6 -208 -27 -323 -85 -306
-152 -509 -446 -555 -803 -70 -537 304 -978 919 -1085 87 -16 370 -20 404 -6
42 16 -22 44 -244 106 -227 64 -351 124 -445 219 -83 83 -128 167 -149 282
-46 239 21 446 169 521 256 130 613 -155 794 -634 82 -217 444 -497 717 -554
118 -25 293 -30 375 -10 185 45 301 163 356 361 28 99 25 349 -5 490 -51 240
-148 475 -296 721 -158 262 -229 431 -272 654 -25 133 -23 417 6 659 12 103
21 190 19 192 -3 2 -46 29 -97 59 -202 122 -385 268 -582 467 -119 119 -295
318 -384 436 -21 29 -42 52 -46 52 -4 0 -23 -19 -42 -42z"/>
<path d="M6685 5328 c-89 -118 -265 -317 -384 -436 -197 -199 -380 -345 -582
-467 -51 -30 -94 -57 -97 -59 -2 -2 7 -89 19 -192 29 -242 31 -515 6 -654 -40
-220 -112 -394 -272 -659 -148 -246 -245 -481 -296 -721 -30 -141 -33 -391 -5
-490 55 -198 170 -315 356 -361 80 -20 255 -16 375 10 164 34 368 150 525 297
100 95 162 180 196 270 75 201 169 351 298 480 248 248 509 261 621 31 55
-113 69 -261 40 -411 -21 -115 -66 -199 -149 -282 -94 -95 -218 -155 -445
-219 -168 -47 -224 -67 -249 -87 -12 -10 -11 -13 5 -19 34 -14 317 -10 404 6
397 69 707 282 845 580 191 412 38 953 -346 1227 -151 107 -291 158 -458 166
-110 4 -113 5 -108 26 23 82 78 385 92 501 20 170 23 520 5 655 -31 244 -86
434 -176 608 -52 102 -148 242 -170 249 -6 2 -29 -20 -50 -49z"/>
<path d="M4390 5303 c-75 -39 -75 -122 1 -187 22 -19 86 -58 141 -87 54 -29
113 -65 129 -80 53 -49 34 -101 -53 -140 -47 -21 -68 -24 -175 -24 -68 0 -123
-1 -123 -2 0 -4 134 -85 185 -111 78 -39 187 -72 236 -72 62 0 189 29 248 58
53 24 170 126 159 137 -3 3 -25 1 -49 -4 -160 -37 -299 13 -299 107 0 56 34
93 104 115 31 10 89 40 130 68 111 74 155 134 136 184 -22 59 -112 69 -297 33
-110 -22 -114 -22 -185 -4 -40 9 -113 20 -163 22 -74 5 -96 2 -125 -13z"/>
<path d="M4465 4148 c18 -68 37 -139 42 -158 7 -28 -10 -173 -83 -685 l-93
-650 36 -80 c95 -212 153 -449 160 -661 l6 -141 100 -129 c54 -71 103 -129
107 -129 5 0 62 68 128 151 l119 150 6 120 c7 146 35 288 92 458 l42 129 -127
706 -128 705 65 156 c36 85 67 161 70 168 4 9 -57 12 -285 12 l-290 0 33 -122z"/>
<path d="M2250 2451 c-154 -47 -229 -211 -185 -406 28 -126 85 -225 190 -330
136 -137 258 -192 404 -183 119 7 195 58 243 163 19 41 23 67 22 145 -1 164
-61 295 -199 436 -85 86 -171 141 -264 168 -57 17 -167 20 -211 7z"/>
<path d="M7040 2437 c-100 -34 -157 -72 -250 -166 -64 -65 -96 -106 -127 -168
-207 -406 65 -712 452 -510 73 39 216 179 263 259 83 141 110 308 68 427 -25
71 -94 141 -161 164 -68 24 -166 21 -245 -6z"/>
</g>
</svg>
