<?xml version="1.0" standalone="no"?>
<!DOCTYPE svg PUBLIC "-//W3C//DTD SVG 20010904//EN"
 "http://www.w3.org/TR/2001/REC-SVG-20010904/DTD/svg10.dtd">
<svg version="1.0" xmlns="http://www.w3.org/2000/svg"
 width="941.000000pt" height="946.000000pt" viewBox="0 0 941.000000 946.000000"
 preserveAspectRatio="xMidYMid meet">
<metadata>
Created by potrace 1.15, written by Peter Selinger 2001-2017
</metadata>
<g transform="translate(0.000000,946.000000) scale(0.100000,-0.100000)"
fill="#000000" stroke="none">
<path d="M3037 8194 c-226 -41 -363 -157 -402 -341 -18 -86 -18 -140 0 -228
30 -146 120 -280 250 -373 54 -39 72 -61 88 -106 l13 -38 37 60 c94 153 277
358 416 467 l63 50 -40 7 c-68 11 -82 23 -82 69 0 21 16 88 35 148 45 140 51
186 31 234 -23 56 -59 67 -208 66 -68 0 -158 -7 -201 -15z"/>
<path d="M5952 8196 c-43 -20 -66 -74 -59 -136 3 -25 22 -96 41 -156 59 -182
53 -198 -82 -217 -7 -1 28 -36 79 -77 162 -132 325 -327 433 -517 l53 -92 7
99 c6 95 20 150 38 150 4 0 41 32 82 70 181 172 234 436 131 647 -49 99 -162
177 -315 218 -92 24 -362 31 -408 11z"/>
<path d="M4004 6976 c-470 -76 -814 -423 -814 -820 0 -233 111 -417 311 -515
120 -59 192 -75 329 -75 99 0 126 4 193 27 102 36 168 79 243 159 74 80 124
166 164 286 104 310 65 695 -87 863 -74 82 -169 103 -339 75z m147 -671 c39
-25 79 -95 79 -136 0 -99 -78 -179 -175 -179 -64 0 -119 30 -150 83 -94 161
91 335 246 232z"/>
<path d="M5126 6980 c-112 -34 -204 -178 -241 -376 -25 -132 -16 -375 18 -500
78 -277 223 -447 442 -516 91 -29 267 -31 365 -4 227 61 390 219 441 426 22
88 17 242 -10 330 -103 339 -423 588 -821 640 -90 11 -155 11 -194 0z m225
-650 c83 -23 141 -126 119 -211 -14 -51 -62 -105 -107 -120 -119 -39 -233 42
-233 166 0 73 38 128 110 159 42 18 63 19 111 6z"/>
<path d="M2678 5233 c-161 -213 -252 -458 -294 -786 -13 -105 -15 -182 -11
-382 5 -263 22 -408 73 -645 14 -63 27 -127 31 -142 l6 -28 -84 0 c-321 0
-660 -234 -814 -562 -158 -336 -127 -729 80 -998 207 -269 580 -432 978 -429
73 1 146 4 162 8 l30 7 -50 26 c-27 14 -117 44 -198 67 -262 73 -372 127 -476
233 -180 184 -206 555 -50 733 54 61 111 88 198 93 129 7 248 -48 375 -173
116 -114 197 -243 297 -468 75 -169 192 -298 384 -422 134 -88 233 -132 343
-155 123 -25 301 -27 387 -5 322 84 439 430 313 928 -56 225 -141 417 -299
679 -134 222 -195 369 -241 578 -30 144 -31 454 0 710 11 96 18 176 14 178 -4
1 -54 32 -112 68 -308 192 -623 484 -891 824 -52 65 -97 119 -101 119 -4 1
-26 -25 -50 -56z"/>
<path d="M6571 5170 c-268 -340 -583 -632 -891 -824 -58 -36 -108 -67 -112
-68 -4 -2 3 -82 14 -178 31 -256 30 -566 0 -710 -46 -209 -107 -356 -241 -578
-158 -262 -243 -454 -299 -679 -126 -498 -9 -844 313 -928 86 -22 264 -20 387
5 172 35 392 164 548 320 106 106 130 141 184 271 59 143 89 200 159 303 155
226 348 353 523 344 173 -8 270 -142 281 -389 12 -251 -70 -425 -260 -549 -78
-51 -176 -89 -364 -141 -81 -23 -170 -53 -198 -67 l-50 -26 30 -7 c17 -4 89
-7 162 -8 398 -3 771 160 978 429 173 226 225 537 139 838 -48 167 -121 296
-239 421 -182 192 -411 301 -634 301 l-83 0 5 28 c4 15 17 79 31 142 51 237
68 382 73 645 4 200 2 277 -11 382 -35 270 -115 518 -224 687 -41 63 -112 156
-120 155 -4 0 -49 -54 -101 -119z"/>
<path d="M4346 5220 c-47 -15 -66 -39 -66 -84 0 -78 48 -123 228 -216 88 -45
122 -78 122 -117 0 -29 -38 -69 -86 -89 -49 -20 -158 -32 -226 -24 -32 3 -58
3 -58 0 0 -11 193 -117 265 -146 121 -48 284 -33 417 38 50 26 145 114 135
124 -1 2 -20 -1 -42 -6 -115 -27 -251 -2 -289 51 -26 37 -21 101 10 133 15 14
32 26 39 26 7 0 53 20 102 45 183 91 260 218 158 261 -48 20 -112 18 -243 -8
-112 -22 -114 -22 -200 -4 -104 21 -226 29 -266 16z"/>
<path d="M4380 4168 c0 -7 18 -79 39 -160 l39 -147 -92 -647 -93 -648 37 -85
c98 -226 149 -436 157 -646 l6 -150 101 -132 c55 -73 103 -132 106 -132 3 0
59 68 125 152 l120 152 6 125 c8 151 34 279 92 451 l43 128 -128 708 -128 707
54 131 c30 71 62 147 71 168 l15 37 -285 0 c-221 0 -285 -3 -285 -12z"/>
<path d="M2176 2354 c-66 -21 -137 -92 -162 -165 -62 -176 25 -424 206 -592
189 -175 430 -208 561 -77 148 148 96 453 -116 665 -153 154 -334 216 -489
169z"/>
<path d="M7010 2356 c-74 -22 -119 -44 -184 -90 -223 -159 -342 -442 -272
-645 25 -74 94 -142 166 -166 68 -23 182 -16 260 15 299 118 504 500 396 736
-34 73 -57 99 -121 132 -60 30 -174 39 -245 18z"/>
</g>
</svg>
